<svg xmlns="http://www.w3.org/2000/svg" width="544.2" height="544.2" viewBox="0 0 544.2 544.2"><path d="M271.9.3C1.9.3-.2 122.2-.2 272.4s2.1 272.1 272.1 272.1S544 422.7 544 272.4 541.9.3 271.9.3z" fill="#2dad62"/><g fill="#fff"><path d="M378.9 154.7c3.9-7.9 3.6-16.9-.9-26.5-5.6-11.9-13.5-16.6-19.1-18.5-11.9-3.8-21.8 1.4-22.9 2l-1.2.8-63.2 46.3-63.2-46.3-1.2-.8c-1.1-.6-11-5.8-22.9-2-5.6 1.9-13.5 6.6-19.1 18.5-4.5 9.7-4.5 18.6-.6 26.5 8.7 17.8 30.5 26.3 89.6 38.6v243.4h35.4V193.3c59.1-12.3 80.6-20.9 89.3-38.6zm-195.8-9.3c-.4-.8-1.5-3 1.1-8.4 1.3-2.8 3.5-6.4 6.6-7.4.1-.1.2-.1.3-.1 2.4-.7 4.9.1 5.8.4l57.3 42c-32.2-7.3-66.1-16.2-71.1-26.5zm177 0c-5.1 10.3-38.9 19.2-71.1 26.5l57.3-42c.9-.4 3.4-1.1 5.8-.4.1 0 .2.1.3.1 3 1 5.2 4.6 6.6 7.4 2.5 5.5 1.5 7.6 1.1 8.4z"/><path d="M136.1 413c0 13 10.6 23.6 23.6 23.6h70.9V299.4h-94.5V413zM112.4 216.7v35.4c0 13 10.6 23.6 23.6 23.6h94.5V193H136c-13 .1-23.6 10.7-23.6 23.7zM313.3 436.6h70.9c13 0 23.6-10.6 23.6-23.6V299.4h-94.5v137.2zM407.8 193.1h-94.5v82.7h94.5c13 0 23.6-10.6 23.6-23.6v-35.4c0-13.1-10.6-23.7-23.6-23.7z"/></g></svg>