<svg version="1.1" id="Layer_1" xmlns="http://www.w3.org/2000/svg" xmlns:xlink="http://www.w3.org/1999/xlink" x="0px" y="0px" width="319px" height="328.4px" viewBox="0 0 319 328.4" style="enable-background:new 0 0 319 328.4;" xml:space="preserve">
<g>
	<path d="M266.5,46.4c3.9-7.9,3.6-16.9-0.9-26.5C260,8,252.1,3.3,246.5,1.4c-11.9-3.8-21.8,1.4-22.9,2l-1.2,0.8
		l-63.2,46.3L96,4.2l-1.2-0.8c-1.1-0.6-11-5.8-22.9-2C66.3,3.3,58.4,8,52.8,19.9c-4.5,9.7-4.5,18.6-0.6,26.5
		c8.7,17.8,30.5,26.3,89.6,38.6v243.4h35.4V85C236.3,72.7,257.8,64.1,266.5,46.4L266.5,46.4z M70.7,37.1c-0.4-0.8-1.5-3,1.1-8.4
		c1.3-2.8,3.5-6.4,6.6-7.4c0.1-0.1,0.2-0.1,0.3-0.1c2.4-0.7,4.9,0.1,5.8,0.4l57.3,42C109.6,56.3,75.7,47.4,70.7,37.1L70.7,37.1z
		 M247.7,37.1c-5.1,10.3-38.9,19.2-71.1,26.5l57.3-42c0.9-0.4,3.4-1.1,5.8-0.4c0.1,0,0.2,0.1,0.3,0.1c3,1,5.2,4.6,6.6,7.4
		C249.1,34.2,248.1,36.3,247.7,37.1L247.7,37.1z"/>
	<path d="M23.7,304.7c0,13,10.6,23.6,23.6,23.6h70.9V191.1H23.7V304.7z M0,108.4v35.4c0,13,10.6,23.6,23.6,23.6h94.5
		V84.7H23.6C10.6,84.8,0,95.4,0,108.4z M200.9,328.3h70.9c13,0,23.6-10.6,23.6-23.6V191.1h-94.5V328.3L200.9,328.3z M295.4,84.8
		h-94.5v82.7h94.5c13,0,23.6-10.6,23.6-23.6v-35.4C319,95.4,308.4,84.8,295.4,84.8L295.4,84.8z"/>
</g>
</svg>
